PathFileType	4	(X/Y/Z)	Patient5_TMGait_0pt45_1_left_04.trc.trc
DataRate	CameraRate	NumFrames	NumMarkers	Units	OrigDataRate	OrigDataStartFrame	OrigNumFrames
58.823529411765	58.823529411765	7	32	mm	58.823529411765	124	       141
Frame#	Time	R.ASIS			L.ASIS			Chest			R.Shoulder			Neck			L.Shoulder			L.Elbow			L.Wrist			R.Elbow			R.Wrist			L.Thigh.Superior			L.Thigh.Lateral			L.Thigh.Inferior			L.Patella			L.Shank.Superior			L.Shank.Lateral			L.Shank.Inferior			L.Heel			L.Midfoot.Lateral			L.Midfoot.Superior			L.Toe			R.Thigh.Superior			R.Thigh.Lateral			R.Thigh.Inferior			R.Patella			R.Shank.Superior			R.Shank.Lateral			R.Shank.Inferior			R.Heel			R.Midfoot.Lateral			R.Midfoot.Superior			R.Toe			
		X1	Y1	Z1	X2	Y2	Z2	X3	Y3	Z3	X4	Y4	Z4	X5	Y5	Z5	X6	Y6	Z6	X7	Y7	Z7	X8	Y8	Z8	X9	Y9	Z9	X10	Y10	Z10	X11	Y11	Z11	X12	Y12	Z12	X13	Y13	Z13	X14	Y14	Z14	X15	Y15	Z15	X16	Y16	Z16	X17	Y17	Z17	X18	Y18	Z18	X19	Y19	Z19	X20	Y20	Z20	X21	Y21	Z21	X22	Y22	Z22	X23	Y23	Z23	X24	Y24	Z24	X25	Y25	Z25	X26	Y26	Z26	X27	Y27	Z27	X28	Y28	Z28	X29	Y29	Z29	X30	Y30	Z30	X31	Y31	Z31	X32	Y32	Z32	

124	7.191000000000	929.489355341186	953.840756911741	608.638049918667	933.035464757738	943.613014872619	370.353316509360	1025.887717245667	1413.791437478079	499.297483513632	936.236229708616	1478.057539333838	670.775698797880	896.211336823255	1538.388021894775	487.558115740098	957.694794557711	1485.822388065877	305.034660761009	843.506387889578	1177.861639879985	178.823429673350	941.576029857267	907.897732454224	161.817299228750	870.044781721944	1161.231033086106	821.853134243543	1074.539538630251	964.548272030393	761.442184853576	987.662803807579	752.234027767297	340.170964469842	940.497211124958	667.151410998094	295.979893468576	1033.498443388790	636.127771116903	356.481932707581	1080.517843942732	528.466322901595	353.548278667533	1062.933564747359	419.621197480505	375.218444260503	1005.832038281061	337.101382718998	302.644857058883	1066.750645959015	292.259057545391	381.290571664117	995.379454376168	47.504939957019	381.678193032904	1080.254363246182	30.567972172683	314.675260640821	1172.996811760512	102.634649215418	348.589229141966	1281.574671890427	73.473932084060	343.369812107971	898.721154150451	720.026744267011	615.767875694011	792.725925784539	658.629193626337	659.921757613102	863.504543798227	593.902822698210	587.989336357484	843.009312414383	499.220754911860	610.355305684671	791.690019239492	413.878697440219	565.886062521330	709.119179633975	352.454454534477	639.805816257254	762.918102379016	278.408458137125	559.412337189700	625.180740987118	53.837690282391	507.868351806117	696.464723295402	25.330790820797	587.839252215004	803.838486589576	87.593782491730	573.802824874997	907.344239275497	44.245915776482	583.507815901556	
125	7.208000000000	931.486484654886	954.482218669227	606.763482670895	938.408968948242	942.841313375943	369.061569507141	1027.928831277151	1413.596427287254	497.159264547625	935.329819201509	1478.078111221965	666.993202964611	898.418348502867	1537.724908373774	483.091632130539	962.405358656943	1484.722708452037	301.599240985495	850.438010437475	1176.205687488389	174.766813648777	946.974527808492	905.538708213394	160.361363259114	868.090336942513	1160.851761960590	817.128492077146	1072.974688519349	963.521097342824	760.265251102176	992.404119053048	749.539929506078	341.224434051381	944.140721783584	664.530748359916	297.657771397647	1035.392230522836	632.562444207823	360.312249761202	1080.041401721631	525.853023868836	360.280217595055	1062.666104170126	416.794187202503	380.517060643941	1008.870032404083	334.333669977355	305.692385568314	1067.133314835408	289.510767879175	385.544067148788	996.641863413972	46.843812640120	381.932804075772	1083.250173601144	29.152263936954	317.208864621956	1175.527435787682	99.806273955652	354.932561121354	1284.220109964528	69.349512046050	352.676902299993	899.444133806953	719.545291223024	614.265003027723	792.642416939335	658.791089267747	657.948537217276	863.610844713043	593.272249942080	587.012962358992	841.904874057944	498.517039402263	609.497627270169	789.687020700560	413.183185810384	564.909151425242	705.481302373667	353.353665556234	638.436395741111	758.598364968907	278.166829314803	558.858329257685	617.627802287399	54.359739257682	507.880059054769	688.900822341784	25.504148050329	587.746358610084	796.378247758100	87.786887455757	573.914417034645	899.726820009677	44.136228987651	583.517764683589	
126	7.225000000000	933.559637321094	955.311374367553	604.744644242060	943.944029275940	942.756810697721	367.448332037842	1030.031806465398	1413.938221002473	494.802496877868	934.409586628248	1478.637953675763	663.008827180550	900.762790418631	1537.561438963444	478.434256644156	967.105067053130	1484.062795508461	297.997607861255	857.806475410406	1174.860349274299	170.562687984935	952.971188248869	903.558194391463	158.810336311649	865.638075637101	1161.017993076058	812.006678334727	1070.997180798714	963.181907924122	758.802312470001	998.467886661938	748.721929729377	342.845577720240	949.992343345100	663.787348452171	299.120816283798	1038.983591042898	630.847350633114	364.321902573519	1081.102205016836	523.990893682566	366.610789583326	1062.518179033300	414.538584526900	384.997433895691	1011.584303183917	332.959904955771	307.552777986952	1065.784211406188	287.330137129941	388.920881920888	993.034940146272	47.163450351256	381.944153797076	1080.902090310277	28.379531211862	319.000554953346	1173.479833306691	96.941451699249	360.037169079396	1282.003603505952	64.265987483369	360.158285138994	900.551798280416	719.372230251650	612.776900801337	793.011913634861	659.183779113564	655.851573219923	864.182146350698	592.888764218956	585.899119609139	841.320487558182	498.043906005987	608.575509267350	788.179690643224	412.666035205465	563.894248254348	702.276864989072	354.504174360140	637.001043309491	754.613433983757	278.131447554460	558.280447158318	610.205941605406	55.328159382024	507.908847010703	681.409630835337	25.875739185131	587.642256965823	789.114056706249	87.994824430307	574.114978172501	892.168953302821	43.979814218193	583.555209524493	
127	7.242000000000	935.553987826331	956.306847769474	602.627378656505	949.487929493276	943.388960829435	365.519041674928	1032.247381607241	1414.806633381143	492.264657599248	933.689238180322	1479.780657503707	658.906848159341	903.322821256583	1537.981274710851	473.695179879523	971.836840236486	1483.888911623671	294.304250924653	865.452563956735	1173.923480421031	166.360287843460	959.528894683914	902.109935109904	157.123640258090	862.672200633508	1161.834748877940	806.533070060732	1068.582492635710	963.615268203586	757.066551161316	1005.393490683436	749.576367148523	344.774453060492	957.474097835874	664.706717287777	300.174162769410	1043.857315719911	630.760561939738	368.058710209034	1083.375885119721	522.865947267072	371.986888406710	1062.581722514101	412.932933551881	388.329800209783	1014.062588353588	332.739753161547	308.109086954868	1063.326486992186	285.758999223713	391.176890479771	986.180248552452	47.918851931116	381.726032408481	1074.832272273902	27.995095036628	319.975099990239	1168.174867836493	94.370272756050	363.519442205275	1276.393897125239	59.106113681564	365.321985317287	901.881873595431	719.593278943728	611.299913130322	793.681635041620	659.898804875358	653.656975993659	865.090309784699	592.855210892951	584.680533407313	841.175315600806	497.899506424440	607.634231325985	787.088713219234	412.410196686260	562.884093889714	699.444935030581	355.972752144948	635.522964742982	750.954333363902	278.375142165095	557.698475148892	602.967001843141	56.892754382118	507.936263503448	674.001374581355	26.543041842698	587.525463188391	782.088308028303	88.221104689324	574.418728399786	884.675712550214	43.768078150519	583.620070411330	
128	7.259000000000	937.390296314058	957.497682659018	600.391534155980	954.925605992768	944.664458497760	363.294845291924	1034.606721806216	1416.145175161576	489.608402079653	933.328653119968	1481.481911213066	654.767836278384	906.131746173222	1538.995677065201	468.978619224155	976.645096252545	1484.205749374339	290.600264253752	873.205629522915	1173.466739520680	162.271746609425	966.596579536873	901.314153015553	155.276075725025	859.240283265523	1163.333425008620	800.782908965305	1065.744231838612	964.808683086109	755.070748498814	1012.595931486581	751.578930551139	346.585740878443	965.682865796799	666.762986565393	300.648796291822	1049.362152750713	631.796103573409	371.066068081050	1086.317681747738	522.309911631117	376.027415087556	1062.786082495057	411.916761847665	390.417981361568	1016.177951140886	333.287379011325	307.562031633432	1060.258287324150	284.748263571176	392.326933492946	977.596668860244	48.713907150238	381.329977654009	1066.639016002630	27.825706650903	320.223350134361	1160.908415241834	92.336929484400	365.403688851959	1268.817369325868	54.582023673656	368.213091902649	903.318035901108	720.271022267200	609.810817648614	794.541050536425	661.002396356892	651.392564711932	866.264036824625	593.244653361194	583.413932802429	841.441321098065	498.148973588888	606.739688932651	786.364720406871	412.463122888636	561.931155951946	696.954195370484	357.802305907423	634.037676907380	747.633723398070	278.944883685446	557.144255032542	595.962461402507	59.179657108572	507.943300077063	666.686740101794	27.601283320735	587.393940092046	775.337625800481	88.472771964697	574.830640584511	877.249767739298	43.501299055256	583.706682219580	
129	7.276000000000	939.047440725389	958.923271981820	597.984161223349	960.171660561650	946.409289518661	360.814485990745	1037.112334166313	1417.862468039907	486.913845496101	933.386585369962	1483.646727316586	650.656242916852	909.171612178480	1540.534882641841	464.364400444135	981.560022344312	1484.975888937126	286.961666706078	880.908004064242	1173.518739765641	158.352921983756	974.117547065296	901.236085159903	153.263923432185	855.455159430961	1165.455348799941	794.864934601046	1062.544448820129	966.655910005542	752.817361235061	1019.480593822862	754.021176570494	347.793718952670	973.589640708421	669.258754778907	300.437678990286	1054.742940619099	633.310133018392	373.010620313632	1089.287637307647	522.073063099123	378.635499990356	1062.921753900779	411.330678253660	391.411867635871	1017.675709876590	334.172586137842	306.339118930692	1056.881815988981	284.170642649864	392.611603475860	968.462098455255	49.326763651225	380.833518368964	1057.621101672699	27.768068535811	319.952603737025	1152.747787904232	90.929818547916	366.032525823088	1260.432768071388	51.075973402886	369.281780810302	904.822627450572	721.429483514868	608.301770510243	795.555539418326	662.509658905923	649.094583253606	867.720769313405	594.079011680754	582.182153937585	842.170837936506	498.801353362392	605.980317338470	786.014328864870	412.818713835928	561.101008843744	694.828562988253	359.994890490101	632.601036102717	744.692491639377	279.849724098849	556.665237329443	589.238007996890	62.272798734838	507.921041317403	659.478836919691	29.126353678527	587.247050667271	768.890158699631	88.756674918670	575.346882289538	869.891000943339	43.190282653892	583.803486252654	
130	7.293000000000	940.533415930459	960.602673296628	595.357257607558	965.151884648131	948.385829471975	358.132906281958	1039.736491066296	1419.846352775573	484.261537912688	933.808686925776	1486.124771441517	646.610577327417	912.385992793906	1542.465880054084	459.894175328080	986.594723899397	1486.127521269168	283.447434106787	888.441577844207	1174.059457964018	154.599220702255	982.037024956537	901.876847632001	151.104865471149	851.482898493247	1168.058914878186	788.910034999448	1059.089571144300	968.975135014226	750.297241391975	1025.551199526166	756.215647880121	348.007378973781	980.292942734238	671.529248169247	299.516600354200	1059.309270043834	634.712070248528	373.775148743639	1091.689857964940	521.913613760276	379.998715335791	1062.705814089969	410.985583339334	391.628721783700	1018.304484640779	335.031718781031	304.918124298651	1053.305638403139	283.866631208951	392.386655225652	959.522036891784	49.686415128714	380.319707808884	1048.646996320191	27.769906557228	319.410196785114	1144.427788408490	90.097417713925	365.892346724322	1252.019965342063	48.652719379090	369.159092653476	906.440149593560	723.045170946544	606.792638781922	796.780025663354	664.369197660228	646.815604119304	869.573774495505	595.321304011676	581.090286537972	843.502290025569	499.800550773199	605.462826719080	786.111396518593	413.413481929564	560.473389132798	693.160076341229	362.506837879501	631.296918253204	742.200587516183	281.059045685130	556.325082065827	582.831037022026	66.210837491464	507.882002233160	652.395011306386	31.165286020892	587.089613568440	762.763247171268	89.079989757325	575.959703837653	862.596223443943	42.854330487699	583.894891727028	
